<svg width="18" height="18" viewBox="0 0 18 18" fill="none" xmlns="http://www.w3.org/2000/svg">
<path d="M17.7801 16.7203L13.3033 12.2435C14.5233 10.7515 15.1231 8.84758 14.9787 6.92568C14.8343 5.00378 13.9567 3.21091 12.5275 1.9179C11.0983 0.624891 9.22678 -0.069323 7.30007 -0.0211491C5.37336 0.0270248 3.53886 0.8139 2.17605 2.17672C0.813229 3.53954 0.0263534 5.37403 -0.0218205 7.30074C-0.0699943 9.22745 0.624219 11.099 1.91723 12.5282C3.21023 13.9574 5.00311 14.835 6.92501 14.9794C8.84691 15.1238 10.7508 14.524 12.2428 13.304L16.7196 17.7808C16.861 17.9174 17.0505 17.993 17.2471 17.9913C17.4438 17.9896 17.6319 17.9107 17.771 17.7716C17.91 17.6326 17.9889 17.4445 17.9906 17.2478C17.9923 17.0512 17.9167 16.8617 17.7801 16.7203ZM7.49984 13.5005C6.31315 13.5005 5.15311 13.1486 4.16642 12.4893C3.17972 11.83 2.41068 10.893 1.95656 9.79661C1.50243 8.70025 1.38361 7.49385 1.61512 6.32997C1.84664 5.16608 2.41808 4.09698 3.2572 3.25787C4.09631 2.41875 5.16541 1.84731 6.32929 1.6158C7.49318 1.38428 8.69958 1.5031 9.79594 1.95723C10.8923 2.41136 11.8294 3.18039 12.4887 4.16709C13.1479 5.15378 13.4998 6.31382 13.4998 7.50051C13.4981 9.09126 12.8653 10.6163 11.7405 11.7412C10.6157 12.866 9.09059 13.4987 7.49984 13.5005Z" fill="white"/>
</svg>
